<svg id="Calque_1" data-name="Calque 1" xmlns="http://www.w3.org/2000/svg" viewBox="0 0 213.59 165.29"><defs><style>.cls-1,.cls-6{fill:#fd0;}.cls-2{fill:#e63312;}.cls-3,.cls-4{fill:none;}.cls-3,.cls-6{stroke:#000;}.cls-3{stroke-width:5.63px;}.cls-4{stroke:#e30613;stroke-width:0.25px;}.cls-5{fill:#fff;}.cls-6{stroke-width:0.22px;}</style></defs><title>footer-logo</title><path d="M66.08,27.65a4.6,4.6,0,0,1,.9-0.8,4,4,0,0,1,1.66-.56,5.3,5.3,0,0,0,2.09-.72A4.76,4.76,0,0,0,72.09,24a4.53,4.53,0,0,1,1.85-1.9,5.82,5.82,0,0,1,3.7-.47L78,21.72l-0.15-.37a4.07,4.07,0,0,0-4.08-2.23,6.42,6.42,0,0,0-2.59,1.12,6.56,6.56,0,0,1-2.07,1,4.81,4.81,0,0,1-1.81-.14,8.94,8.94,0,0,0-3.14-.19L71.63,9.07,59,17.05A4.29,4.29,0,0,1,59,15.84a4,4,0,0,1,.78-1.57,5.32,5.32,0,0,0,1-2,4.7,4.7,0,0,0-.16-2.07,4.51,4.51,0,0,1,0-2.65,5.86,5.86,0,0,1,2.28-3l0.34-.2-0.37-.15a4.07,4.07,0,0,0-4.46,1.31,6.42,6.42,0,0,0-1,2.63,6.44,6.44,0,0,1-.78,2.15,4.85,4.85,0,0,1-1.38,1.18,8.85,8.85,0,0,0-2.36,2.09L49.74,0,46.42,14.6a4.38,4.38,0,0,1-.82-0.91A4,4,0,0,1,45,12a5.3,5.3,0,0,0-.72-2.09,4.73,4.73,0,0,0-1.57-1.35,4.53,4.53,0,0,1-1.9-1.85A5.84,5.84,0,0,1,40.38,3l0.1-.39-0.37.15a4.07,4.07,0,0,0-2.23,4.08A6.4,6.4,0,0,0,39,9.48a6.5,6.5,0,0,1,1,2.07,4.78,4.78,0,0,1-.14,1.81,8.94,8.94,0,0,0-.19,3.15L27.84,9.06l8,12.66a4.49,4.49,0,0,1-1.22-.07A4,4,0,0,1,33,20.88a5.39,5.39,0,0,0-2-1,4.69,4.69,0,0,0-2.07.16,4.52,4.52,0,0,1-2.65,0,5.84,5.84,0,0,1-3-2.29l-0.2-.34L23,17.84a4.07,4.07,0,0,0,1.31,4.47,6.38,6.38,0,0,0,2.62,1,6.45,6.45,0,0,1,2.15.78,4.76,4.76,0,0,1,1.18,1.38,9,9,0,0,0,2.11,2.38L18.77,31l15.52,3.54a3,3,0,0,0,0,.29H65.09s0-.21.06-0.3L80.7,31Z"/><path d="M0,34.8V97.21a49.66,49.66,0,0,0,84.78,35.12A49.34,49.34,0,0,0,99.33,97.21V34.8H0Z"/><path class="cls-1" d="M1.28,97.21V36.08H49.51V145.6A48.38,48.38,0,0,1,1.28,97.21Z"/><path class="cls-2" d="M98.05,97.21A48.38,48.38,0,0,1,49.91,145.6V36.08H98.05V97.21Z"/><polyline class="cls-3" points="82.87 112.72 82.87 112.72 82.87 112.72 82.87 112.72 82.87 112.72 82.87 112.72 82.87 112.72"/><path d="M73.57,96.68V47.46a3.2,3.2,0,0,0-6.39,0V96.67H68V47.46a2.4,2.4,0,1,1,4.79,0V96.68h0.8Z"/><path d="M29.41,57.28a3.57,3.57,0,0,0-2.12-.66,4.12,4.12,0,0,0-1.65.41,5.61,5.61,0,0,1-2.29.53,4.21,4.21,0,0,1-3-1.25L20.11,56,20,56.4a2.42,2.42,0,0,0,.41,2.14,3.75,3.75,0,0,0,2.76,1.18,6.05,6.05,0,0,0,3.1-1l0.39-.22c1.39-.76,2-0.56,2.25-0.46l0,0,0.15,0.05,0.08-.13,0.24-.38,0.09-.15Z"/><path d="M31.45,43.22a1.12,1.12,0,1,0-1.12-1.12,1.1,1.1,0,0,0,.33.79A1.11,1.11,0,0,0,31.45,43.22Z"/><line class="cls-4" x1="43.25" y1="117.41" x2="38.27" y2="122.34"/><path d="M88.24,109.22a3.67,3.67,0,0,0-2.43-1.07v-1.6a2,2,0,0,0-2-2H83.33a2,2,0,0,0-2,2v1.1a11,11,0,0,1-6.49-6.49h0.82a2,2,0,0,0,2-2V98.68a2,2,0,0,0-2-2H65.08a2,2,0,0,0-2,2v0.48a2,2,0,0,0,2,2h1.1a11.06,11.06,0,0,1-6.43,6.47v-1.07a2,2,0,0,0-2-2H57.27a2,2,0,0,0-2,2v1.6a3.7,3.7,0,0,0,0,7.39v1.6a2,2,0,0,0,2,2h0.48a2,2,0,0,0,2-2v-0.81a11.07,11.07,0,0,1,6.46,6.48H65.39a2,2,0,0,0-2,2v0.48a2,2,0,0,0,2,2H67a3.7,3.7,0,0,0,7.39,0H76a2,2,0,0,0,2-2V124.8a2,2,0,0,0-2-2h-1.1a11.08,11.08,0,0,1,6.46-6.48v0.81a2,2,0,0,0,2,2h0.48a2,2,0,0,0,2-2v-1.6A3.7,3.7,0,0,0,88.24,109.22Z"/><path class="cls-1" d="M70.68,130a2.91,2.91,0,0,1-2.9-2.72h5.79A2.91,2.91,0,0,1,70.68,130Z"/><path class="cls-1" d="M55.27,114.74a2.9,2.9,0,0,1,0-5.79v5.79Z"/><path class="cls-1" d="M59.74,108.47A11.81,11.81,0,0,0,67,101.15h2.82A14.57,14.57,0,0,1,59.74,111.3v-2.83Z"/><path class="cls-2" d="M70.52,101.77A15.35,15.35,0,0,0,80.75,112a15.38,15.38,0,0,0-10.21,10.23A15.37,15.37,0,0,0,60.3,112,15.35,15.35,0,0,0,70.52,101.77Z"/><path class="cls-1" d="M59.74,115.48v-2.83a14.51,14.51,0,0,1,10.13,10.16H67A11.86,11.86,0,0,0,59.74,115.48Z"/><path class="cls-1" d="M81.34,115.48a11.87,11.87,0,0,0-7.3,7.32H71.2a14.51,14.51,0,0,1,10.13-10.16v2.84h0Z"/><path class="cls-1" d="M81.34,111.32a14.53,14.53,0,0,1-10.17-10.17H74a11.82,11.82,0,0,0,7.34,7.34v2.83Z"/><path class="cls-5" d="M8.35,161.68a3.54,3.54,0,1,1,3.54,3.54A3.54,3.54,0,0,1,8.35,161.68Zm3.54,2.85A2.85,2.85,0,1,0,9,161.68,2.85,2.85,0,0,0,11.89,164.53Z"/><path class="cls-5" d="M29.41,158.46v0.77a0.8,0.8,0,0,1,.19-0.11h1.68v5.81a0.54,0.54,0,0,1-.11.2h0.88a0.6,0.6,0,0,1-.11-0.2v-5.81h1.72a0.83,0.83,0,0,1,.19.11v-0.77H29.41Z"/><path class="cls-5" d="M19.88,158.46v0.77a0.8,0.8,0,0,1,.19-0.11h1.68v5.81a0.54,0.54,0,0,1-.11.2h0.88a0.6,0.6,0,0,1-.11-0.2v-5.81h1.72a0.82,0.82,0,0,1,.19.11v-0.77H19.88Z"/><path class="cls-5" d="M36.13,159.18H39a0.57,0.57,0,0,1,.21.12v-0.77h-4a0.46,0.46,0,0,1,.11.19v6.21a0.63,0.63,0,0,1-.11.21h4v-0.78a0.59,0.59,0,0,1-.21.12h-2.9A0.53,0.53,0,0,1,36,164.4v-2.25h2.19a0.59,0.59,0,0,1,.21.12v-0.88a0.71,0.71,0,0,1-.21.11H36v-2.32h0.15Z"/><path class="cls-5" d="M48.16,159.18h2.89a0.58,0.58,0,0,1,.21.12v-0.77h-4a0.46,0.46,0,0,1,.11.19v6.21a0.62,0.62,0,0,1-.12.21h4v-0.78a0.58,0.58,0,0,1-.21.12H48.15A0.51,0.51,0,0,1,48,164.4v-2.25H50.2a0.59,0.59,0,0,1,.21.12v-0.88a0.71,0.71,0,0,1-.21.11H48v-2.32h0.15Z"/><path class="cls-5" d="M45.57,158.52H44.8a0.59,0.59,0,0,1,.11.21v4.7l-4-5.09v6.59a0.6,0.6,0,0,1-.11.21h0.88a0.6,0.6,0,0,1-.11-0.21V160.2l4,5.09v-6.56a0.59,0.59,0,0,1,.12-0.21H45.57Z"/><path class="cls-5" d="M5.4,158.37a4.86,4.86,0,0,0-1.23.16,0.88,0.88,0,0,1-.26,0,0.86,0.86,0,0,1-.18,0l-0.21-.09v6.49a0.59,0.59,0,0,1-.11.21H4.3a0.6,0.6,0,0,1-.11-0.21v-2.45a2.36,2.36,0,0,0,1.21.31A2.21,2.21,0,1,0,5.4,158.37Zm0,3.76a1.69,1.69,0,0,1-1.21-.46v-2.42A3.07,3.07,0,0,1,5.4,159,1.54,1.54,0,1,1,5.4,162.13Z"/><path class="cls-5" d="M19,159.4v-1a0.44,0.44,0,0,1-.22.09c-0.1,0-.61-0.12-0.92-0.12a1.51,1.51,0,0,0-1.56,1.49,1.75,1.75,0,0,0,1.2,1.6A2,2,0,0,1,19,163.13a1.43,1.43,0,0,1-1.51,1.45,1.56,1.56,0,0,1-1.23-.5v1.17a0.62,0.62,0,0,1,.27-0.09c0.13,0,.59.13,0.92,0.13a2.14,2.14,0,0,0,2.3-2.15,2.23,2.23,0,0,0-1.43-2.1c-0.85-.47-1.31-0.58-1.31-1.19a0.89,0.89,0,0,1,1-.85A1.08,1.08,0,0,1,19,159.4Z"/><path class="cls-5" d="M56.53,161.44a1.15,1.15,0,0,0,.52-1,2,2,0,0,0-2.22-2.1,4.87,4.87,0,0,0-1.23.16,0.87,0.87,0,0,1-.25,0,0.86,0.86,0,0,1-.18,0L53,158.44v6.49a0.6,0.6,0,0,1-.11.21h2.7a2,2,0,0,0,2-2A1.68,1.68,0,0,0,56.53,161.44Zm-1.28,3.14H53.62v-5.34a3.08,3.08,0,0,1,1.21-.2,1.36,1.36,0,0,1,1.55,1.43,1,1,0,0,1-1,.82H54.58v0.61h1a1.06,1.06,0,0,1,1.21,1.25A1.52,1.52,0,0,1,55.25,164.58Z"/><path class="cls-5" d="M63.55,164.76A3.23,3.23,0,0,0,62,162.14a1.57,1.57,0,0,0,1-1.55,2.06,2.06,0,0,0-2.21-2.21,4.88,4.88,0,0,0-1.23.16,0.86,0.86,0,0,1-.25,0,0.9,0.9,0,0,1-.18,0L59,158.44v6.49a0.6,0.6,0,0,1-.11.21h0.88a0.6,0.6,0,0,1-.11-0.21v-5.69a3.08,3.08,0,0,1,1.21-.2,1.44,1.44,0,0,1,1.54,1.54,1.3,1.3,0,0,1-1.54,1.16h-0.3v0.6c1.85,0,2.31,1.87,2.31,2.58v0.21h0.9A1.89,1.89,0,0,1,63.55,164.76Z"/><path class="cls-5" d="M70.23,164.92l-2.85-6.61-2.85,6.61a1.13,1.13,0,0,1-.15.21h0.91a0.29,0.29,0,0,1-.07-0.21l0.66-1.53h3l0.64,1.53a0.29,0.29,0,0,1-.07.21h0.91A1.37,1.37,0,0,1,70.23,164.92Zm-4.09-2.12,1.24-2.87,1.24,2.87H66.14Z"/><path class="cls-5" d="M73.78,159.4v-1a0.44,0.44,0,0,1-.22.09c-0.1,0-.61-0.12-0.92-0.12a1.51,1.51,0,0,0-1.56,1.49,1.75,1.75,0,0,0,1.2,1.6,2,2,0,0,1,1.54,1.68,1.43,1.43,0,0,1-1.51,1.45,1.57,1.57,0,0,1-1.23-.5v1.17a0.62,0.62,0,0,1,.27-0.09c0.13,0,.59.13,0.92,0.13a2.14,2.14,0,0,0,2.3-2.15,2.23,2.23,0,0,0-1.43-2.1c-0.85-.47-1.31-0.58-1.31-1.19a0.89,0.89,0,0,1,1-.85A1.08,1.08,0,0,1,73.78,159.4Z"/><path class="cls-5" d="M96.35,164.92l-2-3.34,1.7-2.86a2.17,2.17,0,0,1,.18-0.21h-1a0.27,0.27,0,0,1,.07.21L94,161l-1.35-2.29a0.26,0.26,0,0,1,.07-0.21h-1a2.17,2.17,0,0,1,.18.21l1.7,2.86-2,3.34a1,1,0,0,1-.18.21h1a0.24,0.24,0,0,1-.07-0.21L94,162.16l1.63,2.76a0.24,0.24,0,0,1-.07.21h1A0.92,0.92,0,0,1,96.35,164.92Z"/><path class="cls-5" d="M90.4,163a2.29,2.29,0,1,1-4.57,0h0v-4.27a0.59,0.59,0,0,0-.11-0.21H86.6a0.59,0.59,0,0,0-.11.21V163h0a1.63,1.63,0,1,0,3.26,0h0v-4.27a0.6,0.6,0,0,0-.11-0.21h0.88a0.59,0.59,0,0,0-.11.21V163h0Z"/><path class="cls-5" d="M84.79,164.47H81.7v-5.74a0.59,0.59,0,0,1,.11-0.21H80.93a0.59,0.59,0,0,1,.11.21v6.19a0.59,0.59,0,0,1-.11.21H85v-0.77A0.59,0.59,0,0,1,84.79,164.47Z"/><rect class="cls-2" x="28.44" y="49.16" width="6.02" height="1.16"/><polygon points="82.77 50.38 82.77 52.38 80.53 52.38 80.53 50.38 75.24 50.38 75.24 57.9 72.77 57.91 72.77 67.15 75.24 67.17 75.24 74.67 80.53 74.67 80.53 72.67 82.77 72.67 82.77 74.67 88.1 74.67 88.1 69 85.78 69 85.78 67.08 88.1 67.08 88.1 57.98 85.78 57.98 85.78 56.06 88.1 56.06 88.1 50.38 82.77 50.38"/><polygon class="cls-1" points="87.3 55.26 84.99 55.26 84.99 58.77 87.3 58.77 87.3 66.28 84.99 66.28 84.99 69.8 87.3 69.8 87.3 73.87 83.56 73.87 83.56 71.88 79.73 71.88 79.73 73.87 76.04 73.87 76.04 66.36 73.55 66.36 73.55 58.7 76.04 58.7 76.04 51.19 79.73 51.19 79.73 53.18 83.56 53.18 83.56 51.19 87.3 51.19 87.3 55.26"/><polygon points="83.56 60.77 83.56 55.34 79.73 55.34 79.73 60.77 77.58 60.77 77.58 64.29 79.73 64.29 79.73 69.72 83.56 69.72 83.56 64.29 85.64 64.29 85.64 60.77 83.56 60.77"/><polygon class="cls-2" points="82.77 68.92 80.53 68.92 80.53 63.49 78.37 63.49 78.37 61.57 80.53 61.57 80.53 56.14 82.77 56.14 82.77 61.57 84.84 61.57 84.84 63.49 82.77 63.49 82.77 68.92"/><path class="cls-1" d="M68,96.68V47.45a2.54,2.54,0,0,1,.73-1.69,2.4,2.4,0,0,1,4.09,1.69V96.68H68Z"/><path class="cls-1" d="M83.33,118.33a1.2,1.2,0,0,1-1.2-1.2V106.55a1.19,1.19,0,0,1,.35-0.84,1.18,1.18,0,0,1,.85-0.35h0.48a1.2,1.2,0,0,1,1.2,1.2v10.59a1.2,1.2,0,0,1-1.2,1.2H83.33Z"/><path class="cls-1" d="M85.81,114.74v-5.79A2.9,2.9,0,0,1,85.81,114.74Z"/><path class="cls-1" d="M57.27,118.33a1.2,1.2,0,0,1-1.2-1.2V106.55a1.21,1.21,0,0,1,1.2-1.2h0.48a1.2,1.2,0,0,1,1.2,1.2v10.59a1.2,1.2,0,0,1-1.2,1.2H57.27Z"/><path class="cls-1" d="M76.86,99.16a1.2,1.2,0,0,1-1.2,1.2H65.08a1.2,1.2,0,0,1-1.2-1.2V98.68a1.2,1.2,0,0,1,.35-0.85,1.18,1.18,0,0,1,.85-0.35H75.67a1.2,1.2,0,0,1,1.2,1.2v0.48h0Z"/><path class="cls-1" d="M64.19,124.8a1.2,1.2,0,0,1,1.2-1.2H76a1.2,1.2,0,0,1,1.2,1.2v0.48a1.2,1.2,0,0,1-1.2,1.2H65.39a1.2,1.2,0,0,1-1.2-1.2V124.8Z"/><path class="cls-2" d="M26.5,58.1l-0.4.23a5.63,5.63,0,0,1-2.9,1,3.38,3.38,0,0,1-2.45-1,1.92,1.92,0,0,1-.39-1.44,4.56,4.56,0,0,0,3,1.11,6,6,0,0,0,2.44-.56,3.76,3.76,0,0,1,1.5-.38A3.31,3.31,0,0,1,29,57.5L29,57.58A3,3,0,0,0,26.5,58.1Z"/><path class="cls-2" d="M30.73,42.09a0.73,0.73,0,0,1,.21-0.51,0.73,0.73,0,0,1,1,0,0.72,0.72,0,1,1-1,1A0.72,0.72,0,0,1,30.73,42.09Z"/><path d="M36.85,46.25a3.06,3.06,0,0,0-3.06-3.06,3.1,3.1,0,0,0-1.85.62,0.72,0.72,0,0,1-.42.07H31.45a1.12,1.12,0,0,1-.5-0.07,3,3,0,0,0-1.84-.62,3.06,3.06,0,0,0-2.17,5.22,3,3,0,0,0,1.1.7v1.19h0.4V49.23a3,3,0,0,0,.67.08h4.69a3,3,0,0,0,.66-0.07v1.08h0.4v-1.2A3.07,3.07,0,0,0,36.85,46.25Z"/><path class="cls-2" d="M33.79,48.91H29.11a2.66,2.66,0,0,1,0-5.33,2.62,2.62,0,0,1,1.6.53,1.37,1.37,0,0,0,.74.16h0.07a1,1,0,0,0,.66-0.15,2.7,2.7,0,0,1,1.61-.54A2.66,2.66,0,0,1,33.79,48.91Z"/><path d="M29.11,44.6a1.59,1.59,0,0,0-1.59,1.59,1.59,1.59,0,0,0,1.59,1.59h1.59V46.19A1.59,1.59,0,0,0,29.11,44.6Z"/><path d="M33.78,44.6a1.59,1.59,0,0,0-1.59,1.59v1.58h1.59A1.59,1.59,0,0,0,33.78,44.6Z"/><path class="cls-1" d="M30.29,47.38H29.11a1.19,1.19,0,1,1,1.19-1.19v1.18h0Z"/><path class="cls-1" d="M33.78,47.38H32.59V46.19A1.19,1.19,0,1,1,33.78,47.38Z"/><path class="cls-1" d="M78.8,30.83l-13.26-.07a15.87,15.87,0,0,0-.3-2.9Z"/><path class="cls-1" d="M62.88,22.18a15.74,15.74,0,0,0-1.83-2.26l9.32-9.41Z"/><path class="cls-1" d="M70.19,10.31l-9.42,9.33a15.88,15.88,0,0,0-2.26-1.84Z"/><path class="cls-1" d="M55.39,11.85a5.11,5.11,0,0,0,1.48-1.28,6.87,6.87,0,0,0,.84-2.29,6.15,6.15,0,0,1,1-2.47,3.81,3.81,0,0,1,3.63-1.31A6.08,6.08,0,0,0,60.2,7.44a4.84,4.84,0,0,0,0,2.86,4.36,4.36,0,0,1,.16,1.9A5.05,5.05,0,0,1,59.46,14a4.3,4.3,0,0,0-.85,1.74,3.37,3.37,0,0,0,0,1.49l-0.45.28a15.59,15.59,0,0,0-4.9-2l-0.32-1.41A8.4,8.4,0,0,1,55.39,11.85Z"/><path class="cls-1" d="M52.82,15.44a16.15,16.15,0,0,0-2.89-.3L49.86,1.9Z"/><path class="cls-1" d="M49.59,1.9L49.53,15.14a15.54,15.54,0,0,0-2.9.31Z"/><path class="cls-1" d="M40.22,13.44a5.08,5.08,0,0,0,.14-2,6.8,6.8,0,0,0-1-2.21,6.16,6.16,0,0,1-1.06-2.42,3.82,3.82,0,0,1,1.64-3.5,6.12,6.12,0,0,0,.58,3.57,4.84,4.84,0,0,0,2,2A4.36,4.36,0,0,1,44,10.16a5,5,0,0,1,.65,1.94,4.28,4.28,0,0,0,.63,1.83,3.29,3.29,0,0,0,1,1.07l-0.12.52a15.73,15.73,0,0,0-4.9,2l-1.22-.77A8.3,8.3,0,0,1,40.22,13.44Z"/><path class="cls-1" d="M40.94,17.8a15.74,15.74,0,0,0-2.26,1.83l-9.41-9.32Z"/><path class="cls-1" d="M29.08,10.51l9.32,9.41a15.83,15.83,0,0,0-1.84,2.26Z"/><path class="cls-1" d="M34.19,27.88a16,16,0,0,0-.3,2.89l-13.23.07Z"/><path class="cls-1" d="M20.66,31.1l13.23,0.06a15.76,15.76,0,0,0,.3,2.9Z"/><path class="cls-1" d="M34.28,27.45l-1.38.31a8.32,8.32,0,0,1-2.29-2.48,5.11,5.11,0,0,0-1.28-1.48A6.87,6.87,0,0,0,27,23a6.13,6.13,0,0,1-2.46-1,3.82,3.82,0,0,1-1.31-3.64,6.1,6.1,0,0,0,2.93,2.11,4.87,4.87,0,0,0,2.86,0,4.38,4.38,0,0,1,1.9-.16,5.17,5.17,0,0,1,1.84.91,4.29,4.29,0,0,0,1.74.85,3.29,3.29,0,0,0,1.49,0l0.29,0.47A15.83,15.83,0,0,0,34.28,27.45Z"/><path class="cls-1" d="M34.77,34.79A15.43,15.43,0,0,1,49.72,15.54,15.43,15.43,0,0,1,65.14,31a15.51,15.51,0,0,1-.48,3.83H34.77Z"/><path class="cls-1" d="M63.13,22.55l0.77-1.22a8.38,8.38,0,0,1,3.35.14,5.1,5.1,0,0,0,2,.15,6.87,6.87,0,0,0,2.21-1,6.19,6.19,0,0,1,2.43-1.06,3.81,3.81,0,0,1,3.5,1.64,6.1,6.1,0,0,0-3.57.58,4.84,4.84,0,0,0-2,2,4.33,4.33,0,0,1-1.24,1.45,5,5,0,0,1-1.94.65,4.27,4.27,0,0,0-1.83.63,3.44,3.44,0,0,0-1.07,1l-0.52-.12A15.71,15.71,0,0,0,63.13,22.55Z"/><path class="cls-1" d="M65.24,34.06a15.81,15.81,0,0,0,.3-2.89l13.25-.06Z"/><path d="M50.5,22.49h6l-1-1.76L52,21.48c0.64-.72.51-2.66-2.33-2.67h0c-2.83,0-3,2-2.33,2.67l-3.43-.75-1,1.76h6c-1.52-.74-0.72-1.89.79-1.9S52,21.75,50.5,22.49Z"/><polygon points="42.22 24.39 42.88 23.65 42.22 23.65 41.3 23.65 40.38 23.65 39.72 23.65 40.38 24.39 40.38 31.83 39.72 32.56 40.38 32.56 41.3 32.56 42.22 32.56 42.88 32.56 42.22 31.83 42.22 24.39"/><polygon points="52.32 24.39 52.98 23.65 52.32 23.65 51.41 23.65 50.49 23.65 49.83 23.65 50.49 24.39 50.49 27.17 47.07 27.17 47.07 24.39 47.73 23.65 47.07 23.65 46.15 23.65 45.23 23.65 44.58 23.65 45.23 24.39 45.23 31.83 44.58 32.56 45.23 32.56 46.15 32.56 47.07 32.56 47.73 32.56 47.07 31.83 47.07 29.02 50.49 29.02 50.49 31.83 49.83 32.56 50.49 32.56 51.41 32.56 52.32 32.56 52.98 32.56 52.32 31.83 52.32 24.39"/><polygon points="57.33 30.7 58.8 28.12 57.34 25.56 60.22 25.56 59.15 23.68 54.08 23.68 56.62 28.12 54.08 32.56 59.89 32.56 60.95 30.7 57.33 30.7"/><path d="M34.43,105.83a1.61,1.61,0,0,0-2.27.09c-0.27.34-5,6-5.87,7a5.4,5.4,0,0,1-.66-0.6,22,22,0,0,0-3.75-3.46l-0.07,0a2.91,2.91,0,0,0-1.78-.74,2.63,2.63,0,0,0-2.58,3.55l0.05,0.14,0.15,0,0.35-.06,0.15,0V111.5a0.86,0.86,0,0,1,.28-0.62,0.83,0.83,0,0,1,1-.11,1.78,1.78,0,0,0,.47.81,1.64,1.64,0,0,0,1.62.41l1,0.95c-1.7-.1-5.15-0.07-5.36-0.07H16.91a3.23,3.23,0,0,0-1.86.2,2.74,2.74,0,0,0-1.35,1.49,2.62,2.62,0,0,0,.73,2.85l0.11,0.1,0.12-.09,0.28-.21,0.12-.09L15,117a0.87,0.87,0,0,1,0-.69,0.84,0.84,0,0,1,.9-0.54,1.68,1.68,0,0,0,.79.47,1.7,1.7,0,0,0,1.3-.17,1.68,1.68,0,0,0,.75-0.87,12.14,12.14,0,0,1,2.41.4l-3,1.27c-0.25.09-.35,0.11-0.48,0.16a2.85,2.85,0,0,0-1.65,1.11,2.63,2.63,0,0,0,1.56,4.1l0.14,0,0.06-.14,0.15-.32,0.06-.14-0.13-.08a0.86,0.86,0,0,1-.37-0.58,0.83,0.83,0,0,1,.32-0.79,1.63,1.63,0,0,0,.68.08A1.75,1.75,0,0,0,20,118.59h0a16.79,16.79,0,0,1,4.92-1.39c2-.17,3-0.16,3.58-0.16h0.16a0.61,0.61,0,0,1,.43.12,0.37,0.37,0,0,1,.08.27c0,0.27-.07.89-0.09,1.09a1.7,1.7,0,0,0-.37,1.87,0.93,0.93,0,0,1-.68.86,1,1,0,0,1-.75-0.11L27.12,121l-0.11.13-0.27.29-0.11.12,0.1,0.13a2.92,2.92,0,0,0,4.86-.32,3.26,3.26,0,0,0,.35-2.18c0-.24,0-0.55,0-0.66,0-2.73-1.26-3.8-2.4-4.22l5.23-6.57h0A1.44,1.44,0,0,0,34.43,105.83Z"/><path class="cls-2" d="M29.72,122.38a2.51,2.51,0,0,1-2.56-.78l0-.05a1.36,1.36,0,0,0,.92.08,1.32,1.32,0,0,0,.87-0.77h0a1.76,1.76,0,0,0,2.24.26l0.1-.07-0.08.15A2.52,2.52,0,0,1,29.72,122.38Z"/><path class="cls-2" d="M17.15,113.26h0a1.31,1.31,0,0,0-1.19,2,1.31,1.31,0,0,0,2.39-.31l0-.16h0.16a10.28,10.28,0,0,1,3.17.61l0.42,0.18-0.42.18-3.59,1.48a1.33,1.33,0,0,0-1.18,1.47,1.31,1.31,0,0,0,1.41,1.2,1.35,1.35,0,0,0,1.2-1.43v-0.13l0.12-.05,0.15-.06a17.1,17.1,0,0,1,5-1.42c2-.17,3.09-0.16,3.61-0.16h0.16a1,1,0,0,1,.72.23,0.76,0.76,0,0,1,.2.56c0,0.35-.1,1.17-0.1,1.2v0.08l-0.06,0a1.31,1.31,0,0,0-.11,1.83,1.39,1.39,0,0,0,1.72.21,1.7,1.7,0,0,0,.57-1.74c0-.09,0-0.16,0-0.31,0-2.13-.85-3.68-2.42-4.12l-0.29-.08,0.19-.24,5.41-6.79,0,0a1.06,1.06,0,0,0-.24-1.39,1.22,1.22,0,0,0-1.72,0c-0.29.37-5.76,6.86-6,7.14l-0.12.14-0.15-.1a5,5,0,0,1-.86-0.76,22.21,22.21,0,0,0-3.65-3.39,1.34,1.34,0,0,0-1.61.27,1.31,1.31,0,0,0,.06,1.83,1.29,1.29,0,0,0,1.34.28l0.11,0,0.08,0.07L23.22,113l0.56,0.44-0.71-.09c-1.25-.16-5.86-0.12-5.91-0.12h0Z"/><path d="M29.92,59.69l-0.08-.4a2.52,2.52,0,0,1-1.94,0A4,4,0,0,0,30,58.15,1.62,1.62,0,0,0,30.49,57,1.51,1.51,0,0,0,29,55.47a1.43,1.43,0,0,0-1,.37,2.73,2.73,0,0,0-2.22-1.72H23.49a0.86,0.86,0,0,0-.92.92v0.31H22.4a17.42,17.42,0,0,1-1.31-2.55,1.12,1.12,0,0,1,.07-1,0.61,0.61,0,0,1,.49-0.27H26.9l0.25-.4H21.65a1,1,0,0,0-.81.43,1.51,1.51,0,0,0-.12,1.38,18.44,18.44,0,0,0,1.4,2.73l0.06,0.1H23V55a0.56,0.56,0,0,1,.14-0.39,0.53,0.53,0,0,1,.38-0.13h2.29a2.37,2.37,0,0,1,1.94,1.74l0.35,0.08a1.08,1.08,0,0,1,.9-0.47,1.12,1.12,0,0,1,.79.33,1.1,1.1,0,0,1,.33.79,1.23,1.23,0,0,1-.37.87,3.37,3.37,0,0,1-2.07,1.06h-0.1L27.48,59l-0.13.19-0.11.16,0.15,0.12a2.7,2.7,0,0,0,2.54.23"/><path class="cls-2" d="M26.9,51.51s2.49,1.66,3.48,2.45a3.22,3.22,0,0,1-.51,5.33,2.58,2.58,0,0,1-2,0A4,4,0,0,0,30,58.15,1.62,1.62,0,0,0,30.49,57,1.51,1.51,0,0,0,29,55.47a1.43,1.43,0,0,0-1,.37,2.73,2.73,0,0,0-2.22-1.72H23.49a0.86,0.86,0,0,0-.92.92v0.31H22.4a17.42,17.42,0,0,1-1.31-2.55,1.12,1.12,0,0,1,.07-1,0.61,0.61,0,0,1,.49-0.27H26.9Z"/><path d="M46,59.38a2.58,2.58,0,0,0,1.18-2.16,2.66,2.66,0,0,0,0-.32H46.84c-4.9,0-5.43-6.59-12.14-6.59H27.61l-0.71,1.2s2.49,1.66,3.48,2.45a3.19,3.19,0,0,1,1.18,2.5,3.26,3.26,0,0,1-1.72,2.85l0.08,0.38a5,5,0,0,1,.86-0.14,5.19,5.19,0,0,1,5.54,4.85A5.36,5.36,0,0,1,36,66.5a2.22,2.22,0,0,0,1.41.49,2,2,0,0,0,1.17-.35A8.24,8.24,0,0,0,37,73.78a4,4,0,0,0-2.59-1,3.91,3.91,0,0,0-3.13,1.53,2.27,2.27,0,0,1-1.82.91,2.24,2.24,0,0,1-1.33-.43,2.29,2.29,0,0,0,1.59-2.18,2.14,2.14,0,0,0-.51-1.44L10.53,51.78A21.24,21.24,0,0,1,6.4,45.19a6.33,6.33,0,0,0-.54,10.5l14,12.23L19.94,68c-0.16.31-.3,0.62-0.43,0.94l-8.9-5.22a26.22,26.22,0,0,1-7.34-6,6.36,6.36,0,0,0,2.22,8.82l13.14,6a12.59,12.59,0,0,0-.07,1.34s0,0,0,.06c-0.56-.07-5.22-0.68-6-0.83a51.55,51.55,0,0,1-10.6-3,6.33,6.33,0,0,0,6.29,7l10.77,0c0.11,0.44.26,0.88,0.41,1.3-0.23.05-9.08,2.12-10.54,2.39s-5.22,1-6.66.8a6.33,6.33,0,0,0,6.14,4.81A6.26,6.26,0,0,0,10.58,86l10.48-4.47h0c0.22,0.3.38,0.52,0.62,0.79h0s-9.59,8.37-10.91,9.37a25.58,25.58,0,0,1-5.55,3.45,6.33,6.33,0,0,0,9.7-.05l9.34-10.47,0,0q0.48,0.33,1,.61l-4.1,8.83c-1.44,3-3.39,7.52-6.62,10.76a6.33,6.33,0,0,0,9.31-3.72l4.31-14.69a12.76,12.76,0,0,0,1.69.33c-0.06.65-.4,4.5-1.13,8.84a4.1,4.1,0,0,0,.58,0,4,4,0,0,0,4-4l-0.19-4.87h0A13,13,0,0,0,38.42,85l2.28,6.37A14.37,14.37,0,0,0,34.25,96c-1.92,2.56-2.8,4.62-6.63,6a4,4,0,0,0,2.76,1.11,3.62,3.62,0,0,0,.46,0,8.21,8.21,0,0,0,7.09,5.08c0-.07,0-0.12,0-0.19a8.27,8.27,0,0,1,5.32-7.72c0.42,3.77.24,7.49-4.27,11.53a7,7,0,0,0-2.64,6.63,8.51,8.51,0,0,1,5.4-2.8c-1,1.13-2.83,2.58-4.62,4.67a6.93,6.93,0,0,0,2.2,10.74,9.34,9.34,0,0,1,.58-4.31c0.69-1.82,4.9-4.51,5.38-9.25a10.3,10.3,0,0,1,.51,2.84c0,3.82-1.51,6.12-3.94,9.57a3.86,3.86,0,0,0,3.54-.17,14.27,14.27,0,0,0,4.34,7.65V62.47A8.18,8.18,0,0,0,46,59.38Z"/><path class="cls-6" d="M32.91,52.47h1.2V51.59h-5v0.88h1.2a1.27,1.27,0,0,0,2.55,0h0Z"/><path class="cls-2" d="M19.8,109.19a1.63,1.63,0,0,0-.46,1.19l-0.09,0a1.2,1.2,0,0,0-1.06.28,1.22,1.22,0,0,0-.39.74H17.74A2.27,2.27,0,0,1,20,108.44l0.31,0,0.5,0.19A1.75,1.75,0,0,0,19.8,109.19Z"/><path class="cls-2" d="M14.6,116.16a1.23,1.23,0,0,0,0,.83l0,0a2.27,2.27,0,0,1,.64-3.65,1.74,1.74,0,0,1,.36-0.16,2.5,2.5,0,0,1,.6-0.08,1.93,1.93,0,0,0-.73,1,1.69,1.69,0,0,0,.16,1.28H15.41A1.19,1.19,0,0,0,14.6,116.16Z"/><path class="cls-2" d="M17,121a1.21,1.21,0,0,0,.41.72l0,0.06a2.27,2.27,0,0,1-1.2-3.5,3.16,3.16,0,0,1,.19-0.26,1.32,1.32,0,0,1,.37-0.3,1.67,1.67,0,0,0,.38,2.12L17.35,120A1.18,1.18,0,0,0,17,121Z"/><rect x="49.51" y="36.08" width="0.4" height="109.51"/><path class="cls-5" d="M113.28,35h3c2.41,0,4.74.37,4.74,3.17a2.77,2.77,0,0,1-2.52,2.67v0a2,2,0,0,1,1.19,1.18L122,46.72h-2l-1.87-4.06a1.76,1.76,0,0,0-2-1.14h-1v5.21h-1.75V35ZM115,40h1.49c1.66,0,2.64-.71,2.64-1.83s-0.84-1.73-2.44-1.73H115V40Z"/><path class="cls-5" d="M124.15,35H131v1.48h-5.08V39.9h4.63v1.48h-4.63v3.86H131v1.48h-6.83V35Z"/><path class="cls-5" d="M133.67,35h3.2c2.5,0,4.58.84,4.58,3.51S139.33,42,137.13,42h-1.71v4.69h-1.75V35Zm1.75,5.56h1.73a2.17,2.17,0,0,0,2.45-2.07c0-1.48-1.61-2-2.69-2h-1.49v4.08h0Z"/><path class="cls-5" d="M153,41.87c0,3.29-1.73,5.06-4.73,5.06s-4.74-1.76-4.74-5.06V35h1.75v6.65c0,2.25.73,3.8,3,3.8s3-1.54,3-3.8V35H153v6.87Z"/><path class="cls-5" d="M156,35h3.3c2.53,0,4.28.79,4.28,3,0,1.61-1,2.42-2.52,2.79v0a2.79,2.79,0,0,1,2.83,2.82c0,2.52-2.17,3.13-4.65,3.13H156V35Zm1.75,5h1c1.7,0,3.13-.15,3.13-1.88,0-1.39-1.24-1.75-2.25-1.75h-1.84V40Zm0,5.34h1.31c1.57,0,3-.32,3-1.9,0-1.81-1.66-2.07-3.16-2.07h-1.14v4Z"/><path class="cls-5" d="M166.76,35h1.75V45.25h5.1v1.48h-6.85V35Z"/><path class="cls-5" d="M175.51,35h1.75V46.73h-1.75V35Z"/><path class="cls-5" d="M186.59,46.86a6.15,6.15,0,0,1-1,.07c-3.72,0-5.87-2.5-5.87-6.06s2.17-6.06,5.87-6.06,5.87,2.59,5.87,6.06c0,2.62-1.17,4.67-3.28,5.56L191,48.89h-2.17Zm-1-1.41c2.81,0,4-2.25,4-4.59s-1.33-4.6-4-4.59-4,2.2-4,4.59S182.8,45.45,185.61,45.45Z"/><path class="cls-5" d="M203.45,41.87c0,3.29-1.73,5.06-4.73,5.06S194,45.16,194,41.87V35h1.75v6.65c0,2.25.73,3.8,3,3.8s3-1.54,3-3.8V35h1.75v6.87Z"/><path class="cls-5" d="M206.67,35h6.83v1.48h-5.08V39.9H213v1.48h-4.63v3.86h5.08v1.48h-6.83V35Z"/><path class="cls-5" d="M113.47,54.5h6.83V56h-5.08V59.4h4.63v1.48h-4.63v3.86h5.08v1.48h-6.83V54.5Z"/><path class="cls-5" d="M126.4,56h-3.79V54.5h9.33V56h-3.79V66.22H126.4V56Z"/><path class="cls-5" d="M148.71,56.43a5.05,5.05,0,0,0-2.52-.65,4.59,4.59,0,1,0-.09,9.17,6.2,6.2,0,0,0,2.65-.57l0.1,1.63a7.89,7.89,0,0,1-2.78.42c-3.86,0-6.43-2.39-6.43-6.11s2.73-6,6.45-6a7,7,0,0,1,2.74.5Z"/><path class="cls-5" d="M155.7,54.5h1.84l5.15,11.73h-1.9l-1.24-3h-6l-1.24,3H150.5Zm0.86,1.58-2.43,5.81H159Z"/><path class="cls-5" d="M165.31,54.5h2.38l5.38,9.44h0V54.5h1.75V66.22h-2.24l-5.52-9.64h0v9.64h-1.75V54.5h0Z"/><path class="cls-5" d="M181.24,56h-3.79V54.5h9.33V56H183V66.22h-1.75V56Z"/><path class="cls-5" d="M194.65,54.3c3.7,0,5.87,2.59,5.87,6.06s-2.15,6.07-5.87,6.07-5.87-2.5-5.87-6.06S190.94,54.3,194.65,54.3Zm0,10.65c2.81,0,4-2.25,4-4.59s-1.33-4.6-4-4.59-4,2.2-4,4.59S191.83,64.95,194.65,64.95Z"/><path class="cls-5" d="M203.85,54.5h2.38l5.38,9.44h0V54.5h1.75V66.22h-2.24l-5.52-9.64h0v9.64h-1.75V54.5h0Z"/><path class="cls-5" d="M113.28,73.5h3.6c3.62,0,6.5,2.15,6.5,5.76,0,3.93-2.48,6-6.5,6h-3.6V73.5ZM115,83.75h1.83c3,0,4.67-1.39,4.67-4.42A4.17,4.17,0,0,0,117.07,75h-2v8.77Z"/><path class="cls-5" d="M127.31,73.5h6.83V75h-5.08V78.4h4.63v1.48h-4.63v3.86h5.08v1.48h-6.83V73.5Z"/><path class="cls-5" d="M153.5,75.58a5.79,5.79,0,0,0-3.35-.81,4.59,4.59,0,1,0-.09,9.17,7.33,7.33,0,0,0,2-.2V80.18h-2.57V78.81h4.32v6.1a11.49,11.49,0,0,1-3.72.52c-3.86,0-6.43-2.39-6.43-6.11s2.73-6,6.45-6a9.52,9.52,0,0,1,3.58.59Z"/><path class="cls-5" d="M158.16,73.5H165V75h-5.08V78.4h4.63v1.48h-4.63v3.86H165v1.48h-6.83V73.5Z"/><path class="cls-5" d="M169,73.5h2.38l5.38,9.44h0V73.5h1.75V85.22H176.3l-5.52-9.64h0v9.64H169V73.5h0Z"/><path class="cls-5" d="M182.94,73.5h6.83V75h-5.08V78.4h4.63v1.48h-4.63v3.86h5.08v1.48h-6.83V73.5Z"/><path class="cls-5" d="M199.12,85.22h-2.18l-4.6-11.73h2l3.76,10.25h0l3.86-10.25h1.84Z"/><path class="cls-5" d="M206.76,73.5h6.83V75H208.5V78.4h4.63v1.48H208.5v3.86h5.08v1.48h-6.83V73.5Z"/></svg>