<?xml version="1.0" encoding="utf-8"?>
<!-- Generator: Adobe Illustrator 16.0.3, SVG Export Plug-In . SVG Version: 6.00 Build 0)  -->
<!DOCTYPE svg PUBLIC "-//W3C//DTD SVG 1.1//EN" "http://www.w3.org/Graphics/SVG/1.1/DTD/svg11.dtd">
<svg version="1.1" xmlns="http://www.w3.org/2000/svg" xmlns:xlink="http://www.w3.org/1999/xlink" x="0px" y="0px" width="170px"
	 height="41.953px" viewBox="0 0 170 41.953" enable-background="new 0 0 170 41.953" xml:space="preserve">
<g id="NUM" display="none">
	<path display="inline" fill="#080808" d="M20.41,4.235h4.748c2.44,0,3.954,1.683,3.954,3.67c0,1.21-0.454,2.042-1.249,2.61
		c1.249,0.529,2.157,1.626,2.157,3.291c0,2.346-1.873,3.859-4.464,3.859H20.41V4.235z M24.874,9.891
		c1.343,0,2.024-0.794,2.024-1.816c0-0.983-0.681-1.816-2.024-1.816h-2.27v3.632H24.874z M25.555,15.623
		c1.513,0,2.251-0.813,2.251-1.91s-0.738-1.949-2.251-1.949h-2.951v3.859H25.555z"/>
	<path display="inline" fill="#080808" d="M31.976,4.235h2.194v13.431h-2.194V4.235z"/>
	<path display="inline" fill="#080808" d="M36.917,4.235h4.748c2.44,0,3.953,1.683,3.953,3.67c0,1.21-0.454,2.042-1.248,2.61
		c1.248,0.529,2.156,1.626,2.156,3.291c0,2.346-1.873,3.859-4.464,3.859h-5.146V4.235z M41.381,9.891
		c1.343,0,2.024-0.794,2.024-1.816c0-0.983-0.681-1.816-2.024-1.816h-2.27v3.632H41.381z M42.062,15.623
		c1.513,0,2.251-0.813,2.251-1.91s-0.738-1.949-2.251-1.949h-2.951v3.859H42.062z"/>
	<path display="inline" fill="#080808" d="M48.493,4.235h2.194v11.255h5.656v2.175h-7.85V4.235z"/>
	<path display="inline" fill="#080808" d="M57.765,4.235h2.194v13.431h-2.194V4.235z"/>
	<path display="inline" fill="#080808" d="M79.12,6.392h-3.461V4.235h9.137v2.156h-3.481v11.274H79.12V6.392z"/>
	<path display="inline" fill="#080808" d="M86.126,4.235h2.194v5.561h6.659V4.235h2.194v13.431h-2.194v-5.751H88.32v5.751h-2.194
		V4.235z"/>
	<path display="inline" fill="#080808" d="M99.949,4.235h7.963v2.156h-5.769v3.405h4.634v2.119h-4.634v3.594h5.769v2.157h-7.963
		V4.235z M101.443,0.396h2.459l1.418,2.743h-1.646L101.443,0.396z"/>
	<path display="inline" fill="#080808" d="M114.774,17.741c-3.292-0.492-5.789-3.291-5.789-6.791c0-3.878,3.065-6.867,6.867-6.867
		c3.821,0,6.867,2.989,6.867,6.867c0,3.519-2.497,6.299-5.807,6.791v3.405h-2.138V17.741z M116.912,15.623
		c2.1-0.473,3.575-2.345,3.575-4.672c0-2.687-1.986-4.786-4.635-4.786c-2.27,0-4.048,1.551-4.521,3.689h5.581V15.623z
		 M111.332,12.01c0.359,1.816,1.684,3.197,3.443,3.613V12.01H111.332z"/>
	<path display="inline" fill="#080808" d="M93.988,57.278c-3.291-0.492-5.788-3.292-5.788-6.791c0-3.878,3.064-6.867,6.867-6.867
		c3.821,0,6.867,2.989,6.867,6.867c0,3.519-2.497,6.299-5.807,6.791v3.405h-2.138V57.278z M96.126,55.16
		c2.099-0.473,3.575-2.346,3.575-4.672c0-2.686-1.986-4.786-4.634-4.786c-2.27,0-4.048,1.551-4.521,3.688h5.581V55.16z
		 M90.545,51.547c0.359,1.816,1.684,3.197,3.442,3.613v-3.613H90.545z"/>
	<path display="inline" fill="#080808" d="M124.444,12.445V4.235h2.194v8.266c0,2.081,1.305,3.235,3.216,3.235
		s3.197-1.154,3.197-3.235V4.235h2.194v8.209c0,3.311-2.232,5.372-5.391,5.372S124.444,15.755,124.444,12.445z"/>
	<path display="inline" fill="#080808" d="M137.893,4.235h7.963v2.156h-5.769v3.405h4.634v2.119h-4.634v3.594h5.769v2.157h-7.963
		V4.235z"/>
	<path display="inline" fill="#080808" d="M72.143,24.004h4.256c4.01,0,7.037,2.913,7.037,6.715c0,3.802-3.026,6.715-7.037,6.715
		h-4.256V24.004z M76.398,35.391c2.894,0,4.805-2.023,4.805-4.672s-1.911-4.673-4.805-4.673h-2.062v9.345H76.398z"/>
	<path display="inline" fill="#080808" d="M85.404,24.004h7.964v2.156h-5.77v3.405h4.634v2.118h-4.634v3.594h5.77v2.156h-7.964
		V24.004z"/>
	<path display="inline" fill="#080808" d="M99.268,30.719c0-3.878,3.065-6.867,6.867-6.867c1.911,0,3.67,0.662,4.899,1.948
		l-1.418,1.551c-0.833-0.889-2.157-1.419-3.481-1.419c-2.648,0-4.634,2.1-4.634,4.786s1.986,4.786,4.634,4.786
		c0.984,0,1.986-0.246,2.743-0.719v-3.103h-3.689l0.965-2.118h4.918v6.299c-1.248,1.078-3.045,1.721-4.937,1.721
		C102.333,37.585,99.268,34.597,99.268,30.719z"/>
	<path display="inline" fill="#080808" d="M113.65,24.004h7.963v2.156h-5.77v3.405h4.635v2.118h-4.635v3.594h5.77v2.156h-7.963
		V24.004z"/>
	<path display="inline" fill="#080808" d="M125.939,28.865v8.569h-2.194V23.853l9.174,8.72v-8.569h2.194v13.582L125.939,28.865z"/>
	<path display="inline" fill="#080808" d="M137.889,24.004h7.964v2.156h-5.77v3.405h4.635v2.118h-4.635v3.594h5.77v2.156h-7.964
		V24.004z M139.384,20.164h2.459l1.419,2.743h-1.646L139.384,20.164z"/>
	<path display="inline" fill="#080808" d="M146.726,24.004h2.421l3.802,8.588l3.821-8.588h2.403l-6.224,13.582L146.726,24.004z"/>
	<path display="inline" fill="#080808" d="M160.359,24.004h7.963v2.156h-5.77v3.405h4.635v2.118h-4.635v3.594h5.77v2.156h-7.963
		V24.004z"/>
	<path display="inline" fill="#080808" d="M22.604,48.634v8.569H20.41V43.621l9.174,8.721v-8.569h2.194v13.582L22.604,48.634z"/>
	<path display="inline" fill="#080808" d="M34.208,51.982v-8.209h2.194v8.266c0,2.081,1.306,3.235,3.216,3.235
		c1.911,0,3.197-1.154,3.197-3.235v-8.266h2.194v8.209c0,3.311-2.232,5.372-5.391,5.372C36.458,57.354,34.208,55.292,34.208,51.982z
		"/>
	<path display="inline" fill="#080808" d="M47.354,43.621l6.602,7.037l6.602-7.037v13.582h-2.194v-8.248l-4.408,4.767l-4.407-4.767
		v8.248h-2.194V43.621z"/>
	<path display="inline" fill="#080808" d="M63.072,43.772h7.964v2.156h-5.77v3.405H69.9v2.119h-4.634v3.594h5.77v2.156h-7.964
		V43.772z M67.063,39.932h2.459l-2.213,2.743h-1.646L67.063,39.932z"/>
	<path display="inline" fill="#080808" d="M76.351,51.49h-1.268v5.713h-2.194v-13.43h4.351c2.497,0,4.275,1.607,4.275,3.858
		c0,1.741-1.06,3.122-2.762,3.651l4.275,5.921h-2.629L76.351,51.49z M77.031,49.58c1.514,0,2.251-0.738,2.251-1.873
		c0-1.154-0.737-1.911-2.251-1.911h-1.948v3.784H77.031z"/>
	<path display="inline" fill="#080808" d="M84.181,43.772h2.194v13.43h-2.194V43.772z"/>
	<path display="inline" fill="#080808" d="M103.501,51.982v-8.209h2.195v8.266c0,2.081,1.305,3.235,3.215,3.235
		s3.197-1.154,3.197-3.235v-8.266h2.194v8.209c0,3.311-2.232,5.372-5.391,5.372S103.501,55.292,103.501,51.982z"/>
	<path display="inline" fill="#080808" d="M116.563,43.772h7.964v2.156h-5.77v9.118h5.77v2.156h-7.964V43.772z M120.101,50.487
		c0-0.851,0.7-1.532,1.551-1.532c0.852,0,1.532,0.681,1.532,1.532c0,0.852-0.681,1.532-1.532,1.532
		C120.801,52.02,120.101,51.339,120.101,50.487z"/>
	<path display="inline" fill="#080808" d="M61.759,10.951c0-3.878,3.064-6.867,6.867-6.867c3.821,0,6.867,2.989,6.867,6.867
		c0,3.877-3.045,6.866-6.867,6.866C64.824,17.817,61.759,14.828,61.759,10.951z M73.261,10.951c0-2.687-1.986-4.786-4.635-4.786
		c-2.648,0-4.634,2.1-4.634,4.786c0,2.686,1.986,4.786,4.634,4.786C71.274,15.736,73.261,13.637,73.261,10.951z M67.094,10.951
		c0-0.852,0.681-1.532,1.532-1.532s1.532,0.681,1.532,1.532c0,0.851-0.681,1.532-1.532,1.532S67.094,11.802,67.094,10.951z"/>
</g>
<g id="ICONO" display="none">
	<path display="inline" fill="#080808" d="M20.41,4.235h4.748c2.44,0,3.954,1.683,3.954,3.67c0,1.21-0.454,2.042-1.249,2.61
		c1.249,0.529,2.157,1.626,2.157,3.291c0,2.346-1.873,3.859-4.464,3.859H20.41V4.235z M24.874,9.891
		c1.343,0,2.024-0.794,2.024-1.816c0-0.983-0.681-1.816-2.024-1.816h-2.27v3.632H24.874z M25.555,15.623
		c1.513,0,2.251-0.813,2.251-1.91s-0.738-1.949-2.251-1.949h-2.951v3.859H25.555z"/>
	<path display="inline" fill="#080808" d="M31.976,4.235h2.194v13.431h-2.194V4.235z"/>
	<path display="inline" fill="#080808" d="M36.917,4.235h4.748c2.44,0,3.953,1.683,3.953,3.67c0,1.21-0.454,2.042-1.248,2.61
		c1.248,0.529,2.156,1.626,2.156,3.291c0,2.346-1.873,3.859-4.464,3.859h-5.146V4.235z M41.381,9.891
		c1.343,0,2.024-0.794,2.024-1.816c0-0.983-0.681-1.816-2.024-1.816h-2.27v3.632H41.381z M42.062,15.623
		c1.513,0,2.251-0.813,2.251-1.91s-0.738-1.949-2.251-1.949h-2.951v3.859H42.062z"/>
	<path display="inline" fill="#080808" d="M48.493,4.235h2.194v11.255h5.656v2.175h-7.85V4.235z"/>
	<path display="inline" fill="#080808" d="M57.765,4.235h2.194v13.431h-2.194V4.235z"/>
	<path display="inline" fill="#080808" d="M61.759,10.951c0-3.878,3.064-6.867,6.867-6.867c3.821,0,6.867,2.989,6.867,6.867
		c0,3.877-3.045,6.866-6.867,6.866C64.824,17.817,61.759,14.828,61.759,10.951z M73.261,10.951c0-2.687-1.986-4.786-4.635-4.786
		c-2.648,0-4.634,2.1-4.634,4.786c0,2.686,1.986,4.786,4.634,4.786C71.274,15.736,73.261,13.637,73.261,10.951z M67.094,10.951
		c0-0.852,0.681-1.532,1.532-1.532s1.532,0.681,1.532,1.532c0,0.851-0.681,1.532-1.532,1.532S67.094,11.802,67.094,10.951z"/>
	<path display="inline" fill="#080808" d="M79.12,6.392h-3.461V4.235h9.137v2.156h-3.481v11.274H79.12V6.392z"/>
	<path display="inline" fill="#080808" d="M86.126,4.235h2.194v5.561h6.659V4.235h2.194v13.431h-2.194v-5.751H88.32v5.751h-2.194
		V4.235z"/>
	<path display="inline" fill="#080808" d="M99.949,4.235h7.963v2.156h-5.769v3.405h4.634v2.119h-4.634v3.594h5.769v2.157h-7.963
		V4.235z M101.443,0.396h2.459l1.418,2.743h-1.646L101.443,0.396z"/>
	<path display="inline" fill="#080808" d="M114.774,17.741c-3.292-0.492-5.789-3.291-5.789-6.791c0-3.878,3.065-6.867,6.867-6.867
		c3.821,0,6.867,2.989,6.867,6.867c0,3.519-2.497,6.299-5.807,6.791v3.405h-2.138V17.741z M116.912,15.623
		c2.1-0.473,3.575-2.345,3.575-4.672c0-2.687-1.986-4.786-4.635-4.786c-2.27,0-4.048,1.551-4.521,3.689h5.581V15.623z
		 M111.332,12.01c0.359,1.816,1.684,3.197,3.443,3.613V12.01H111.332z"/>
	<path display="inline" fill="#080808" d="M124.444,12.445V4.235h2.194v8.266c0,2.081,1.305,3.235,3.216,3.235
		s3.197-1.154,3.197-3.235V4.235h2.194v8.209c0,3.311-2.232,5.372-5.391,5.372S124.444,15.755,124.444,12.445z"/>
	<path display="inline" fill="#080808" d="M137.893,4.235h7.963v2.156h-5.769v3.405h4.634v2.119h-4.634v3.594h5.769v2.157h-7.963
		V4.235z"/>
	<path display="inline" fill="#080808" d="M72.143,24.004h4.256c4.01,0,7.037,2.913,7.037,6.715c0,3.802-3.026,6.715-7.037,6.715
		h-4.256V24.004z M76.398,35.391c2.894,0,4.805-2.023,4.805-4.672s-1.911-4.673-4.805-4.673h-2.062v9.345H76.398z"/>
	<path display="inline" fill="#080808" d="M85.404,24.004h7.964v2.156h-5.77v3.405h4.634v2.118h-4.634v3.594h5.77v2.156h-7.964
		V24.004z"/>
	<path display="inline" fill="#080808" d="M99.268,30.719c0-3.878,3.065-6.867,6.867-6.867c1.911,0,3.67,0.662,4.899,1.948
		l-1.418,1.551c-0.833-0.889-2.157-1.419-3.481-1.419c-2.648,0-4.634,2.1-4.634,4.786s1.986,4.786,4.634,4.786
		c0.984,0,1.986-0.246,2.743-0.719v-3.103h-3.689l0.965-2.118h4.918v6.299c-1.248,1.078-3.045,1.721-4.937,1.721
		C102.333,37.585,99.268,34.597,99.268,30.719z"/>
	<path display="inline" fill="#080808" d="M113.65,24.004h7.963v2.156h-5.77v3.405h4.635v2.118h-4.635v3.594h5.77v2.156h-7.963
		V24.004z"/>
	<path display="inline" fill="#080808" d="M125.939,28.865v8.569h-2.194V23.853l9.174,8.72v-8.569h2.194v13.582L125.939,28.865z"/>
	<path display="inline" fill="#080808" d="M137.889,24.004h7.964v2.156h-5.77v3.405h4.635v2.118h-4.635v3.594h5.77v2.156h-7.964
		V24.004z M139.384,20.164h2.459l1.419,2.743h-1.646L139.384,20.164z"/>
	<path display="inline" fill="#080808" d="M146.726,24.004h2.421l3.802,8.588l3.821-8.588h2.403l-6.224,13.582L146.726,24.004z"/>
	<path display="inline" fill="#080808" d="M160.359,24.004h7.963v2.156h-5.77v3.405h4.635v2.118h-4.635v3.594h5.77v2.156h-7.963
		V24.004z"/>
</g>
<g id="MUSICALE" display="none">
	<g display="inline">
		<path fill="#FFC525" d="M20.41,4.235h4.748c2.44,0,3.954,1.683,3.954,3.67c0,1.21-0.454,2.042-1.249,2.61
			c1.249,0.529,2.157,1.626,2.157,3.291c0,2.346-1.873,3.859-4.464,3.859H20.41V4.235z M24.874,9.891
			c1.343,0,2.024-0.794,2.024-1.816c0-0.983-0.681-1.816-2.024-1.816h-2.27v3.632H24.874z M25.555,15.623
			c1.513,0,2.251-0.813,2.251-1.91s-0.738-1.949-2.251-1.949h-2.951v3.859H25.555z"/>
		<path fill="#FFC525" d="M31.976,4.235h2.194v13.431h-2.194V4.235z"/>
		<path fill="#FFC525" d="M36.917,4.235h4.748c2.44,0,3.953,1.683,3.953,3.67c0,1.21-0.454,2.042-1.248,2.61
			c1.248,0.529,2.156,1.626,2.156,3.291c0,2.346-1.873,3.859-4.464,3.859h-5.146V4.235z M41.381,9.891
			c1.343,0,2.024-0.794,2.024-1.816c0-0.983-0.681-1.816-2.024-1.816h-2.27v3.632H41.381z M42.062,15.623
			c1.513,0,2.251-0.813,2.251-1.91s-0.738-1.949-2.251-1.949h-2.951v3.859H42.062z"/>
		<path fill="#FFC525" d="M48.493,4.235h2.194v11.255h5.656v2.175h-7.85V4.235z"/>
		<path fill="#FFC525" d="M57.765,4.235h2.194v13.431h-2.194V4.235z"/>
		<path fill="#FFC525" d="M61.759,10.951c0-3.878,3.064-6.867,6.867-6.867c3.821,0,6.867,2.989,6.867,6.867
			c0,3.877-3.045,6.866-6.867,6.866C64.824,17.817,61.759,14.828,61.759,10.951z M73.261,10.951c0-2.687-1.986-4.786-4.635-4.786
			c-2.648,0-4.634,2.1-4.634,4.786c0,2.686,1.986,4.786,4.634,4.786C71.274,15.736,73.261,13.637,73.261,10.951z M67.094,10.951
			c0-0.852,0.681-1.532,1.532-1.532s1.532,0.681,1.532,1.532c0,0.851-0.681,1.532-1.532,1.532S67.094,11.802,67.094,10.951z"/>
		<path fill="#FFC525" d="M79.12,6.392h-3.461V4.235h9.137v2.156h-3.481v11.274H79.12V6.392z"/>
		<path fill="#FFC525" d="M86.126,4.235h2.194v5.561h6.659V4.235h2.194v13.431h-2.194v-5.751H88.32v5.751h-2.194V4.235z"/>
		<path fill="#FFC525" d="M99.949,4.235h7.963v2.156h-5.769v3.405h4.634v2.119h-4.634v3.594h5.769v2.157h-7.963V4.235z
			 M101.443,0.396h2.459l1.418,2.743h-1.646L101.443,0.396z"/>
		<path fill="#FFC525" d="M114.774,17.741c-3.292-0.492-5.789-3.291-5.789-6.791c0-3.878,3.065-6.867,6.867-6.867
			c3.821,0,6.867,2.989,6.867,6.867c0,3.519-2.497,6.299-5.807,6.791v3.405h-2.138V17.741z M116.912,15.623
			c2.1-0.473,3.575-2.345,3.575-4.672c0-2.687-1.986-4.786-4.635-4.786c-2.27,0-4.048,1.551-4.521,3.689h5.581V15.623z
			 M111.332,12.01c0.359,1.816,1.684,3.197,3.443,3.613V12.01H111.332z"/>
		<path fill="#FFC525" d="M124.444,12.445V4.235h2.194v8.266c0,2.081,1.305,3.235,3.216,3.235s3.197-1.154,3.197-3.235V4.235h2.194
			v8.209c0,3.311-2.232,5.372-5.391,5.372S124.444,15.755,124.444,12.445z"/>
		<path fill="#FFC525" d="M137.893,4.235h7.963v2.156h-5.769v3.405h4.634v2.119h-4.634v3.594h5.769v2.157h-7.963V4.235z"/>
		<path fill="#FFC525" d="M72.143,24.004h4.256c4.01,0,7.037,2.913,7.037,6.715c0,3.802-3.026,6.715-7.037,6.715h-4.256V24.004z
			 M76.398,35.391c2.894,0,4.805-2.023,4.805-4.672s-1.911-4.673-4.805-4.673h-2.062v9.345H76.398z"/>
		<path fill="#FFC525" d="M85.404,24.004h7.964v2.156h-5.77v3.405h4.634v2.118h-4.634v3.594h5.77v2.156h-7.964V24.004z"/>
		<path fill="#FFC525" d="M99.268,30.719c0-3.878,3.065-6.867,6.867-6.867c1.911,0,3.67,0.662,4.899,1.948l-1.418,1.551
			c-0.833-0.889-2.157-1.419-3.481-1.419c-2.648,0-4.634,2.1-4.634,4.786s1.986,4.786,4.634,4.786c0.984,0,1.986-0.246,2.743-0.719
			v-3.103h-3.689l0.965-2.118h4.918v6.299c-1.248,1.078-3.045,1.721-4.937,1.721C102.333,37.585,99.268,34.597,99.268,30.719z"/>
		<path fill="#FFC525" d="M113.65,24.004h7.963v2.156h-5.77v3.405h4.635v2.118h-4.635v3.594h5.77v2.156h-7.963V24.004z"/>
		<path fill="#FFC525" d="M125.939,28.865v8.569h-2.194V23.853l9.174,8.72v-8.569h2.194v13.582L125.939,28.865z"/>
		<path fill="#FFC525" d="M137.889,24.004h7.964v2.156h-5.77v3.405h4.635v2.118h-4.635v3.594h5.77v2.156h-7.964V24.004z
			 M139.384,20.164h2.459l1.419,2.743h-1.646L139.384,20.164z"/>
		<path fill="#FFC525" d="M146.726,24.004h2.421l3.802,8.588l3.821-8.588h2.403l-6.224,13.582L146.726,24.004z"/>
		<path fill="#FFC525" d="M160.359,24.004h7.963v2.156h-5.77v3.405h4.635v2.118h-4.635v3.594h5.77v2.156h-7.963V24.004z"/>
		<path fill="#FFC525" d="M20.41,43.621l6.602,7.037l6.602-7.037v13.582h-2.194v-8.248l-4.408,4.767l-4.408-4.767v8.248H20.41
			V43.621z"/>
		<path fill="#FFC525" d="M36.271,51.982v-8.21h2.194v8.267c0,2.081,1.305,3.235,3.216,3.235s3.197-1.154,3.197-3.235v-8.267h2.194
			v8.21c0,3.31-2.232,5.372-5.391,5.372S36.271,55.292,36.271,51.982z"/>
		<path fill="#FFC525" d="M48.455,55.065l1.665-1.4c0.624,0.852,1.665,1.608,2.837,1.608c1.305,0,2.062-0.586,2.062-1.551
			c0-1.003-0.625-1.589-1.949-2.176l-1.059-0.454c-2.024-0.889-3.027-2.175-3.027-3.916c0-2.156,1.949-3.556,3.991-3.556
			c1.551,0,2.781,0.53,3.765,1.703l-1.513,1.57c-0.7-0.832-1.305-1.191-2.27-1.191c-0.908,0-1.778,0.53-1.778,1.457
			c0,0.87,0.605,1.494,1.949,2.062l1.04,0.473c1.835,0.794,3.083,1.967,3.083,3.84c0,2.27-1.684,3.821-4.275,3.821
			C50.952,57.354,49.306,56.446,48.455,55.065z"/>
		<path fill="#FFC525" d="M59.155,43.772h2.194v13.431h-2.194V43.772z"/>
		<path fill="#FFC525" d="M63.318,50.487c0-3.878,3.064-6.867,6.867-6.867c1.892,0,3.519,0.662,4.748,1.949l-1.418,1.551
			c-0.833-0.889-2.024-1.418-3.33-1.418c-2.648,0-4.634,2.1-4.634,4.786s1.986,4.786,4.634,4.786c1.305,0,2.497-0.53,3.33-1.419
			l1.418,1.551c-1.229,1.287-2.856,1.949-4.748,1.949C66.382,57.354,63.318,54.365,63.318,50.487z"/>
		<path fill="#FFC525" d="M81.929,43.621l6.564,13.582h-2.365l-4.199-8.966l-4.218,8.966h-2.346L81.929,43.621z M80.378,55.822
			c0-0.851,0.7-1.551,1.551-1.551c0.833,0,1.532,0.7,1.532,1.551s-0.7,1.532-1.532,1.532C81.078,57.354,80.378,56.673,80.378,55.822
			z"/>
		<path fill="#FFC525" d="M89.749,43.772h2.194v11.255h5.656v2.175h-7.85V43.772z"/>
		<path fill="#FFC525" d="M99.021,43.772h7.963v2.157h-5.769v9.118h5.769v2.156h-7.963V43.772z M102.559,50.487
			c0-0.851,0.7-1.532,1.551-1.532c0.852,0,1.532,0.681,1.532,1.532s-0.681,1.532-1.532,1.532
			C103.258,52.02,102.559,51.338,102.559,50.487z"/>
	</g>
</g>
<g id="VOLTAIRE" display="none">
	<g display="inline">
		<path fill="#4DCEBE" d="M20.41,4.235h4.748c2.44,0,3.954,1.683,3.954,3.67c0,1.21-0.454,2.042-1.249,2.61
			c1.249,0.529,2.157,1.626,2.157,3.291c0,2.346-1.873,3.859-4.464,3.859H20.41V4.235z M24.874,9.891
			c1.343,0,2.024-0.794,2.024-1.816c0-0.983-0.681-1.816-2.024-1.816h-2.27v3.632H24.874z M25.555,15.623
			c1.513,0,2.251-0.813,2.251-1.91s-0.738-1.949-2.251-1.949h-2.951v3.859H25.555z"/>
		<path fill="#4DCEBE" d="M31.976,4.235h2.194v13.431h-2.194V4.235z"/>
		<path fill="#4DCEBE" d="M36.917,4.235h4.748c2.44,0,3.953,1.683,3.953,3.67c0,1.21-0.454,2.042-1.248,2.61
			c1.248,0.529,2.156,1.626,2.156,3.291c0,2.346-1.873,3.859-4.464,3.859h-5.146V4.235z M41.381,9.891
			c1.343,0,2.024-0.794,2.024-1.816c0-0.983-0.681-1.816-2.024-1.816h-2.27v3.632H41.381z M42.062,15.623
			c1.513,0,2.251-0.813,2.251-1.91s-0.738-1.949-2.251-1.949h-2.951v3.859H42.062z"/>
		<path fill="#4DCEBE" d="M48.493,4.235h2.194v11.255h5.656v2.175h-7.85V4.235z"/>
		<path fill="#4DCEBE" d="M57.765,4.235h2.194v13.431h-2.194V4.235z"/>
		<path fill="#4DCEBE" d="M61.759,10.951c0-3.878,3.064-6.867,6.867-6.867c3.821,0,6.867,2.989,6.867,6.867
			c0,3.877-3.045,6.866-6.867,6.866C64.824,17.817,61.759,14.828,61.759,10.951z M73.261,10.951c0-2.687-1.986-4.786-4.635-4.786
			c-2.648,0-4.634,2.1-4.634,4.786c0,2.686,1.986,4.786,4.634,4.786C71.274,15.736,73.261,13.637,73.261,10.951z M67.094,10.951
			c0-0.852,0.681-1.532,1.532-1.532s1.532,0.681,1.532,1.532c0,0.851-0.681,1.532-1.532,1.532S67.094,11.802,67.094,10.951z"/>
		<path fill="#4DCEBE" d="M79.12,6.392h-3.461V4.235h9.137v2.156h-3.481v11.274H79.12V6.392z"/>
		<path fill="#4DCEBE" d="M86.126,4.235h2.194v5.561h6.659V4.235h2.194v13.431h-2.194v-5.751H88.32v5.751h-2.194V4.235z"/>
		<path fill="#4DCEBE" d="M99.949,4.235h7.963v2.156h-5.769v3.405h4.634v2.119h-4.634v3.594h5.769v2.157h-7.963V4.235z
			 M101.443,0.396h2.459l1.418,2.743h-1.646L101.443,0.396z"/>
		<path fill="#4DCEBE" d="M114.774,17.741c-3.292-0.492-5.789-3.291-5.789-6.791c0-3.878,3.065-6.867,6.867-6.867
			c3.821,0,6.867,2.989,6.867,6.867c0,3.519-2.497,6.299-5.807,6.791v3.405h-2.138V17.741z M116.912,15.623
			c2.1-0.473,3.575-2.345,3.575-4.672c0-2.687-1.986-4.786-4.635-4.786c-2.27,0-4.048,1.551-4.521,3.689h5.581V15.623z
			 M111.332,12.01c0.359,1.816,1.684,3.197,3.443,3.613V12.01H111.332z"/>
		<path fill="#4DCEBE" d="M124.444,12.445V4.235h2.194v8.266c0,2.081,1.305,3.235,3.216,3.235s3.197-1.154,3.197-3.235V4.235h2.194
			v8.209c0,3.311-2.232,5.372-5.391,5.372C126.695,17.817,124.444,15.755,124.444,12.445z"/>
		<path fill="#4DCEBE" d="M137.893,4.235h7.963v2.156h-5.769v3.405h4.634v2.119h-4.634v3.594h5.769v2.157h-7.963V4.235z"/>
		<path fill="#4DCEBE" d="M72.142,24.004h4.256c4.01,0,7.037,2.913,7.037,6.715c0,3.802-3.027,6.715-7.037,6.715h-4.256V24.004z
			 M76.398,35.391c2.895,0,4.805-2.023,4.805-4.672s-1.91-4.673-4.805-4.673h-2.062v9.345H76.398z"/>
		<path fill="#4DCEBE" d="M85.403,24.004h7.964v2.156h-5.77v3.405h4.634v2.118h-4.634v3.594h5.77v2.156h-7.964V24.004z"/>
		<path fill="#4DCEBE" d="M99.268,30.719c0-3.878,3.064-6.867,6.867-6.867c1.91,0,3.669,0.662,4.899,1.948l-1.418,1.551
			c-0.832-0.889-2.157-1.419-3.48-1.419c-2.648,0-4.635,2.1-4.635,4.786s1.986,4.786,4.635,4.786c0.983,0,1.986-0.246,2.743-0.719
			v-3.103h-3.688l0.964-2.118h4.918v6.299c-1.249,1.078-3.045,1.721-4.937,1.721C102.333,37.585,99.268,34.597,99.268,30.719z"/>
		<path fill="#4DCEBE" d="M113.649,24.004h7.963v2.156h-5.769v3.405h4.634v2.118h-4.634v3.594h5.769v2.156h-7.963V24.004z"/>
		<path fill="#4DCEBE" d="M125.938,28.865v8.569h-2.194V23.853l9.174,8.72v-8.569h2.195v13.582L125.938,28.865z"/>
		<path fill="#4DCEBE" d="M137.889,24.004h7.964v2.156h-5.77v3.405h4.635v2.118h-4.635v3.594h5.77v2.156h-7.964V24.004z
			 M139.384,20.164h2.459l1.419,2.743h-1.646L139.384,20.164z"/>
		<path fill="#4DCEBE" d="M146.726,24.004h2.421l3.803,8.588l3.821-8.588h2.402l-6.223,13.582L146.726,24.004z"/>
		<path fill="#4DCEBE" d="M160.358,24.004h7.964v2.156h-5.77v3.405h4.635v2.118h-4.635v3.594h5.77v2.156h-7.964V24.004z"/>
		<path fill="#4DCEBE" d="M20.41,43.621l6.602,7.037l6.602-7.037v13.582h-2.194v-8.248l-4.408,4.767l-4.408-4.767v8.248H20.41
			V43.621z"/>
		<path fill="#4DCEBE" d="M36.249,51.982v-8.21h2.194v8.267c0,2.081,1.305,3.235,3.216,3.235s3.197-1.154,3.197-3.235v-8.267h2.194
			v8.21c0,3.31-2.232,5.372-5.391,5.372C38.5,57.354,36.249,55.292,36.249,51.982z"/>
		<path fill="#4DCEBE" d="M48.364,55.065l1.665-1.4c0.625,0.852,1.665,1.608,2.837,1.608c1.305,0,2.062-0.586,2.062-1.551
			c0-1.003-0.625-1.589-1.949-2.176l-1.059-0.454c-2.024-0.889-3.027-2.175-3.027-3.916c0-2.156,1.949-3.556,3.992-3.556
			c1.551,0,2.781,0.53,3.764,1.703l-1.513,1.57c-0.7-0.832-1.305-1.191-2.27-1.191c-0.908,0-1.778,0.53-1.778,1.457
			c0,0.87,0.605,1.494,1.948,2.062l1.041,0.473c1.835,0.794,3.083,1.967,3.083,3.84c0,2.27-1.684,3.821-4.275,3.821
			C50.861,57.354,49.215,56.446,48.364,55.065z"/>
		<path fill="#4DCEBE" d="M59.058,43.772h7.963v2.157h-5.769v3.405h4.634v2.119h-4.634v3.594h5.769v2.156h-7.963V43.772z
			 M63.049,39.932h2.459l-2.213,2.743h-1.646L63.049,39.932z"/>
		<path fill="#4DCEBE" d="M69.128,43.772h7.964v2.157h-5.77v9.118h5.77v2.156h-7.964V43.772z M72.666,50.487
			c0-0.851,0.7-1.532,1.551-1.532c0.851,0,1.532,0.681,1.532,1.532s-0.681,1.532-1.532,1.532
			C73.365,52.02,72.666,51.338,72.666,50.487z"/>
		<path fill="#4DCEBE" d="M87.207,43.783h2.422l3.802,8.588l3.821-8.588h2.402L93.43,57.365L87.207,43.783z"/>
		<path fill="#4DCEBE" d="M99.284,50.498c0-3.877,3.064-6.867,6.867-6.867c3.821,0,6.867,2.989,6.867,6.867
			c0,3.878-3.045,6.867-6.867,6.867C102.349,57.365,99.284,54.376,99.284,50.498z M110.785,50.498c0-2.686-1.986-4.786-4.634-4.786
			s-4.634,2.1-4.634,4.786c0,2.687,1.986,4.786,4.634,4.786S110.785,53.185,110.785,50.498z M104.619,50.498
			c0-0.851,0.681-1.532,1.532-1.532c0.851,0,1.532,0.681,1.532,1.532c0,0.852-0.681,1.532-1.532,1.532
			C105.299,52.03,104.619,51.35,104.619,50.498z"/>
		<path fill="#4DCEBE" d="M114.573,43.783h2.194v11.255h5.656v2.175h-7.85V43.783z"/>
		<path fill="#4DCEBE" d="M125.16,45.939h-3.462v-2.156h9.137v2.156h-3.48v11.274h-2.194V45.939z"/>
		<path fill="#4DCEBE" d="M136.592,43.631l6.564,13.582h-2.365l-4.2-8.966l-4.218,8.966h-2.345L136.592,43.631z M135.042,55.833
			c0-0.851,0.7-1.551,1.551-1.551c0.833,0,1.532,0.7,1.532,1.551s-0.7,1.532-1.532,1.532
			C135.742,57.365,135.042,56.684,135.042,55.833z"/>
		<path fill="#4DCEBE" d="M144.053,43.783h2.194v13.43h-2.194V43.783z"/>
		<path fill="#4DCEBE" d="M152.455,51.5h-1.268v5.713h-2.194v-13.43h4.351c2.497,0,4.275,1.607,4.275,3.858
			c0,1.741-1.059,3.122-2.762,3.651l4.275,5.921h-2.629L152.455,51.5z M153.136,49.59c1.513,0,2.251-0.738,2.251-1.873
			c0-1.154-0.738-1.911-2.251-1.911h-1.949v3.783H153.136z"/>
		<path fill="#4DCEBE" d="M160.361,43.783h7.964v2.156h-5.77v9.118h5.77v2.156h-7.964V43.783z M163.898,50.498
			c0-0.851,0.7-1.532,1.551-1.532c0.851,0,1.532,0.681,1.532,1.532c0,0.852-0.681,1.532-1.532,1.532
			C164.598,52.03,163.898,51.35,163.898,50.498z"/>
	</g>
</g>
<g id="BIBLIO">
	<path fill="#080808" d="M20.41,4.235h4.748c2.44,0,3.954,1.683,3.954,3.67c0,1.21-0.454,2.042-1.249,2.61
		c1.249,0.529,2.157,1.626,2.157,3.291c0,2.346-1.873,3.859-4.464,3.859H20.41V4.235z M24.874,9.891
		c1.343,0,2.024-0.794,2.024-1.816c0-0.983-0.681-1.816-2.024-1.816h-2.27v3.632H24.874z M25.555,15.623
		c1.513,0,2.251-0.813,2.251-1.91s-0.738-1.949-2.251-1.949h-2.951v3.859H25.555z"/>
	<path fill="#080808" d="M31.976,4.235h2.194v13.431h-2.194V4.235z"/>
	<path fill="#080808" d="M36.917,4.235h4.748c2.44,0,3.953,1.683,3.953,3.67c0,1.21-0.454,2.042-1.248,2.61
		c1.248,0.529,2.156,1.626,2.156,3.291c0,2.346-1.873,3.859-4.464,3.859h-5.146V4.235z M41.381,9.891
		c1.343,0,2.024-0.794,2.024-1.816c0-0.983-0.681-1.816-2.024-1.816h-2.27v3.632H41.381z M42.062,15.623
		c1.513,0,2.251-0.813,2.251-1.91s-0.738-1.949-2.251-1.949h-2.951v3.859H42.062z"/>
	<path fill="#080808" d="M48.493,4.235h2.194v11.255h5.656v2.175h-7.85V4.235z"/>
	<path fill="#080808" d="M57.765,4.235h2.194v13.431h-2.194V4.235z"/>
	<path fill="#080808" d="M79.12,6.392h-3.461V4.235h9.137v2.156h-3.481v11.274H79.12V6.392z"/>
	<path fill="#080808" d="M86.126,4.235h2.194v5.561h6.659V4.235h2.194v13.431h-2.194v-5.751H88.32v5.751h-2.194V4.235z"/>
	<path fill="#080808" d="M99.949,4.235h7.963v2.156h-5.769v3.405h4.634v2.119h-4.634v3.594h5.769v2.157h-7.963V4.235z
		 M101.443,0.396h2.459l1.418,2.743h-1.646L101.443,0.396z"/>
	<path fill="#080808" d="M114.774,17.741c-3.292-0.492-5.789-3.291-5.789-6.791c0-3.878,3.065-6.867,6.867-6.867
		c3.821,0,6.867,2.989,6.867,6.867c0,3.519-2.497,6.299-5.807,6.791v3.405h-2.138V17.741z M116.912,15.623
		c2.1-0.473,3.575-2.345,3.575-4.672c0-2.687-1.986-4.786-4.635-4.786c-2.27,0-4.048,1.551-4.521,3.689h5.581V15.623z
		 M111.332,12.01c0.359,1.816,1.684,3.197,3.443,3.613V12.01H111.332z"/>
	<path fill="#080808" d="M124.444,12.445V4.235h2.194v8.266c0,2.081,1.305,3.235,3.216,3.235s3.197-1.154,3.197-3.235V4.235h2.194
		v8.209c0,3.311-2.232,5.372-5.391,5.372S124.444,15.755,124.444,12.445z"/>
	<path fill="#080808" d="M137.893,4.235h7.963v2.156h-5.769v3.405h4.634v2.119h-4.634v3.594h5.769v2.157h-7.963V4.235z"/>
	<path fill="#080808" d="M72.143,24.004h4.256c4.01,0,7.037,2.913,7.037,6.715c0,3.802-3.026,6.715-7.037,6.715h-4.256V24.004z
		 M76.398,35.391c2.894,0,4.805-2.023,4.805-4.672s-1.911-4.673-4.805-4.673h-2.062v9.345H76.398z"/>
	<path fill="#080808" d="M85.404,24.004h7.964v2.156h-5.77v3.405h4.634v2.118h-4.634v3.594h5.77v2.156h-7.964V24.004z"/>
	<path fill="#080808" d="M99.268,30.719c0-3.878,3.065-6.867,6.867-6.867c1.911,0,3.67,0.662,4.899,1.948l-1.418,1.551
		c-0.833-0.889-2.157-1.419-3.481-1.419c-2.648,0-4.634,2.1-4.634,4.786s1.986,4.786,4.634,4.786c0.984,0,1.986-0.246,2.743-0.719
		v-3.103h-3.689l0.965-2.118h4.918v6.299c-1.248,1.078-3.045,1.721-4.937,1.721C102.333,37.585,99.268,34.597,99.268,30.719z"/>
	<path fill="#080808" d="M113.65,24.004h7.963v2.156h-5.77v3.405h4.635v2.118h-4.635v3.594h5.77v2.156h-7.963V24.004z"/>
	<path fill="#080808" d="M125.939,28.865v8.569h-2.194V23.853l9.174,8.72v-8.569h2.194v13.582L125.939,28.865z"/>
	<path fill="#080808" d="M137.889,24.004h7.964v2.156h-5.77v3.405h4.635v2.118h-4.635v3.594h5.77v2.156h-7.964V24.004z
		 M139.384,20.164h2.459l1.419,2.743h-1.646L139.384,20.164z"/>
	<path fill="#080808" d="M146.726,24.004h2.421l3.802,8.588l3.821-8.588h2.403l-6.224,13.582L146.726,24.004z"/>
	<path fill="#080808" d="M160.359,24.004h7.963v2.156h-5.77v3.405h4.635v2.118h-4.635v3.594h5.77v2.156h-7.963V24.004z"/>
	<path fill="#080808" d="M61.759,10.951c0-3.878,3.064-6.867,6.867-6.867c3.821,0,6.867,2.989,6.867,6.867
		c0,3.877-3.045,6.866-6.867,6.866C64.824,17.817,61.759,14.828,61.759,10.951z M73.261,10.951c0-2.687-1.986-4.786-4.635-4.786
		c-2.648,0-4.634,2.1-4.634,4.786c0,2.686,1.986,4.786,4.634,4.786C71.274,15.736,73.261,13.637,73.261,10.951z M67.094,10.951
		c0-0.852,0.681-1.532,1.532-1.532s1.532,0.681,1.532,1.532c0,0.851-0.681,1.532-1.532,1.532S67.094,11.802,67.094,10.951z"/>
	<g display="none">
		<path display="inline" fill="#080808" d="M8.693,4.855c-3.321,0-6.024,2.702-6.024,6.024c0,3.322,2.703,6.024,6.024,6.024
			s6.024-2.702,6.024-6.024C14.717,7.558,12.015,4.855,8.693,4.855 M8.693,18.833c-4.385,0-7.953-3.567-7.953-7.953
			c0-4.386,3.568-7.953,7.953-7.953s7.953,3.567,7.953,7.953C16.646,15.266,13.078,18.833,8.693,18.833"/>
		<circle display="inline" fill="#080808" cx="8.829" cy="10.973" r="2.867"/>
	</g>
</g>
<g id="Calque_6" display="none">
	<g display="inline">
		<path fill="#FFC525" d="M8.693,4.855c-3.321,0-6.024,2.702-6.024,6.024c0,3.322,2.703,6.024,6.024,6.024s6.024-2.702,6.024-6.024
			C14.717,7.558,12.015,4.855,8.693,4.855 M8.693,18.833c-4.385,0-7.953-3.567-7.953-7.953c0-4.386,3.568-7.953,7.953-7.953
			s7.953,3.567,7.953,7.953C16.646,15.266,13.078,18.833,8.693,18.833"/>
		<circle fill="#FFC525" cx="8.829" cy="10.973" r="2.867"/>
	</g>
</g>
<g id="Calque_9" display="none">
	<g display="inline">
		<path fill="#4DCEBE" d="M8.693,4.855c-3.321,0-6.024,2.702-6.024,6.024c0,3.322,2.703,6.024,6.024,6.024s6.024-2.702,6.024-6.024
			C14.717,7.558,12.015,4.855,8.693,4.855 M8.693,18.833c-4.385,0-7.953-3.567-7.953-7.953c0-4.386,3.568-7.953,7.953-7.953
			s7.953,3.567,7.953,7.953C16.646,15.266,13.078,18.833,8.693,18.833"/>
		<circle fill="#4DCEBE" cx="8.829" cy="10.973" r="2.867"/>
	</g>
</g>
<g id="Calque_8" display="none">
	<g display="inline">
		<path fill="#3D92C9" d="M8.693,4.855c-3.321,0-6.024,2.702-6.024,6.024c0,3.322,2.703,6.024,6.024,6.024s6.024-2.702,6.024-6.024
			C14.717,7.558,12.015,4.855,8.693,4.855 M8.693,18.833c-4.385,0-7.953-3.567-7.953-7.953c0-4.386,3.568-7.953,7.953-7.953
			s7.953,3.567,7.953,7.953C16.646,15.266,13.078,18.833,8.693,18.833"/>
		<circle fill="#3D92C9" cx="8.829" cy="10.973" r="2.867"/>
	</g>
</g>
<g id="Calque_7">
	<g>
		<path fill="#080808" d="M8.693,4.855c-3.321,0-6.024,2.702-6.024,6.024c0,3.322,2.703,6.024,6.024,6.024s6.024-2.702,6.024-6.024
			C14.717,7.558,12.015,4.855,8.693,4.855 M8.693,18.833c-4.385,0-7.953-3.567-7.953-7.953c0-4.386,3.568-7.953,7.953-7.953
			s7.953,3.567,7.953,7.953C16.646,15.266,13.078,18.833,8.693,18.833"/>
		<circle fill="#080808" cx="8.829" cy="10.973" r="2.867"/>
	</g>
</g>
<g id="Calque_10" display="none">
</g>
</svg>
