<svg xmlns="http://www.w3.org/2000/svg" viewBox="0 0 125.92 88.51"><path d="M68.36 7.12v.02a44.25 44.25 0 100 74.22l57.56-37.38z" fill="#333333"/><path d="M32.36 31.86c4.58-4.58 12.2-6.52 19.41-1.39L30.5 51.76c-5.4-8.88-1.53-16.5 1.87-19.9m28.61 16.86a14.88 14.88 0 01-4.27 7.48c-6.59 6.59-15.6 4.78-18.52 2.7l29.89-29.88a30.17 30.17 0 00-4.09-5.2c-9.7-9.71-27.95-12.55-40.14-.35-11.86 11.86-10.27 30.23.62 41.11a28.6 28.6 0 0040.7.07 27.56 27.56 0 007.75-15.93z" fill="#fff"/><circle cx="88.51" cy="68.42" r="14.57" fill="#99ca3c"/></svg>